<svg width="44" height="44" viewBox="0 0 44 44" fill="none" xmlns="http://www.w3.org/2000/svg">
<path fill-rule="evenodd" clip-rule="evenodd" d="M12.8111 6.41665L12.8112 7.33329L9.5868 7.3113L6.3624 7.28937L6.11335 7.58434C5.97637 7.7466 5.78234 7.98509 5.68211 8.11436L5.5 8.34933L5.60256 9.20653C5.78332 10.717 6.01509 12.0637 6.28414 13.1666C7.3485 17.5296 9.41843 19.7454 12.4833 19.8024C13.023 19.8125 13.1574 19.8364 13.0973 19.912C13.0415 19.9822 13.1392 20.1691 13.4533 20.593C13.6915 20.9144 13.9328 21.2173 13.9898 21.2661C14.0711 21.3359 14.21 21.2586 14.6408 20.9037C14.942 20.6556 15.2272 20.4221 15.2746 20.3849C15.3318 20.3401 15.4577 20.4559 15.649 20.7294C16.3376 21.7136 17.356 22.6648 18.3771 23.2775L18.9242 23.6058V24.5775V25.5492H21.9808H25.0373L25.0463 24.6716C25.0512 24.1889 25.0521 23.7702 25.0481 23.7411C25.0442 23.7121 25.3204 23.5224 25.6618 23.3195C26.0033 23.1167 26.4694 22.8027 26.6977 22.6218C27.198 22.2253 28.1938 21.1597 28.476 20.719C28.5882 20.5438 28.6972 20.4004 28.7182 20.4004C28.7393 20.4004 28.9931 20.598 29.2822 20.8395C29.5714 21.0811 29.8503 21.2829 29.9018 21.2881C30.0241 21.3004 31.0324 19.9826 30.9281 19.9467C30.7452 19.8837 30.8681 19.81 31.108 19.8389C31.2508 19.8562 31.6667 19.8297 32.0326 19.78C34.216 19.4837 35.72 18.2455 36.8135 15.844C37.5058 14.3238 37.9799 12.3902 38.329 9.66368L38.5 8.32749L38.0612 7.81089L37.6225 7.29429H34.5102H31.3979L31.3503 6.88472C31.3241 6.65942 31.3024 6.25579 31.3021 5.98758L31.3014 5.5H22.0563H12.8111V6.41665ZM17.5949 8.67901C17.7495 13.1504 18.0237 15.3238 18.7076 17.4966C19.096 18.7308 19.5612 19.6713 20.1682 20.4499L20.6467 21.0635L20.4506 21.278C20.3427 21.396 20.1998 21.4926 20.133 21.4926C19.9158 21.4926 18.877 20.7272 18.4676 20.2655C16.604 18.1639 15.7454 14.7806 15.4874 8.52299L15.44 7.3723H16.4948H17.5497L17.5949 8.67901ZM11.7526 9.24078C11.8135 9.3585 11.7885 9.49315 11.6425 9.8343C11.5388 10.077 11.4693 10.3016 11.4884 10.3333C11.5074 10.3651 11.8239 10.5216 12.1917 10.681L12.8606 10.9709L12.9928 12.2337C13.1997 14.2077 13.5615 16.032 14.0157 17.3902C14.1005 17.644 14.1577 17.8643 14.1427 17.8798C14.1276 17.8953 13.8193 17.949 13.4575 17.999C10.8781 18.3558 9.04334 16.7014 8.04577 13.1196C7.83943 12.3784 7.51318 10.7097 7.41786 9.90771C7.39242 9.69317 7.35318 9.42107 7.33069 9.30311L7.28978 9.08858H9.48175C11.5782 9.08858 11.6772 9.09521 11.7526 9.24078ZM36.6598 9.21511C36.6598 9.48051 36.4153 11.039 36.2329 11.936C35.9795 13.1822 35.598 14.3401 35.1274 15.2906C34.8113 15.9291 34.6242 16.1916 34.0968 16.7369C33.3587 17.4999 32.8753 17.7795 31.9781 17.9622C31.4076 18.0784 30.2477 18.0504 30.0363 17.9155C29.9752 17.8764 30.0247 17.6178 30.2069 17.0243C30.658 15.5549 30.9941 13.7078 31.2034 11.5474L31.2637 10.9248L31.8846 10.6502C32.2261 10.4993 32.5063 10.3364 32.5072 10.2882C32.5082 10.24 32.4381 10.035 32.3515 9.83266C32.2562 9.60993 32.2121 9.39056 32.2397 9.27666L32.2854 9.08858H34.4726C36.4394 9.08858 36.6598 9.10129 36.6598 9.21511ZM19.8299 27.363C19.7782 27.717 19.6398 28.3978 19.5222 28.8759C18.8772 31.4984 17.6623 33.4687 15.9023 34.7464L15.3534 35.1448H14.4596H13.5658V36.8223V38.5L21.9997 38.4801L30.4335 38.4603L30.4539 36.8025L30.4742 35.1448H29.5757H28.6771L28.1979 34.814C26.7709 33.8289 25.5863 32.1881 24.8829 30.222C24.6073 29.452 24.2245 27.85 24.1574 27.1862L24.1102 26.7194H22.017H19.9238L19.8299 27.363Z" fill="#FFB84D"/>
</svg>
